<?xml version="1.0" encoding="utf-8"?>
<!-- Generator: Adobe Illustrator 28.1.0, SVG Export Plug-In . SVG Version: 6.00 Build 0)  -->
<svg version="1.1" id="ball" xmlns="http://www.w3.org/2000/svg" xmlns:xlink="http://www.w3.org/1999/xlink" x="0px" y="0px"
	 viewBox="0 0 612 792" style="enable-background:new 0 0 612 792;" xml:space="preserve">
<style type="text/css">
	.st0{fill:#E58628;stroke:#000000;stroke-width:2;stroke-miterlimit:10;}
</style>
<circle class="st0" cx="306.31" cy="396.33" r="117.03"/>
<line class="st0" x1="361.68" y1="293.23" x2="250.93" y2="499.43"/>
<line class="st0" x1="203.21" y1="340.95" x2="409.41" y2="451.71"/>
<path class="st0" d="M326.85,358.09c0,0-42.97,6.86-57.51-17.17c-14.54-24.02-23.27-44.94-23.27-44.94"/>
<path class="st0" d="M326.85,358.09c0,0,18.02,39.61,46.07,38.47c28.06-1.15,50.32-5.41,50.32-5.41"/>
<path class="st0" d="M367.43,495.04c0,0-18.02-39.61-46.07-38.47c-28.06,1.15-50.32,5.41-50.32,5.41"/>
<path class="st0" d="M190.26,399.88c0,0,42.97-6.86,57.51,17.17c14.54,24.02,23.27,44.94,23.27,44.94"/>
</svg>
